<?xml version="1.0" encoding="UTF-8"?>
<svg id="Layer_1" data-name="Layer 1" xmlns="http://www.w3.org/2000/svg" xmlns:xlink="http://www.w3.org/1999/xlink" viewBox="0 0 549.53 142.4">
  <defs>
    <style>
      .cls-1 {
        fill: url(#linear-gradient);
      }

      .cls-1, .cls-2, .cls-3 {
        stroke-width: 0px;
      }

      .cls-2 {
        fill: url(#linear-gradient-2);
        opacity: .98;
      }

      .cls-3 {
        fill: #fff;
      }
    </style>
    <linearGradient id="linear-gradient" x1="438.3" y1="46.39" x2="481.46" y2="148.63" gradientUnits="userSpaceOnUse">
      <stop offset="0" stop-color="#fff"/>
      <stop offset=".25" stop-color="#fcfcfd"/>
      <stop offset=".4" stop-color="#f4f4f7"/>
      <stop offset=".51" stop-color="#e7e6ed"/>
      <stop offset=".61" stop-color="#d3d2df"/>
      <stop offset=".7" stop-color="#bab9cd"/>
      <stop offset=".79" stop-color="#9b99b7"/>
      <stop offset=".86" stop-color="#76749c"/>
      <stop offset=".94" stop-color="#4d4a7e"/>
      <stop offset="1" stop-color="#262262"/>
    </linearGradient>
    <linearGradient id="linear-gradient-2" x1="509.06" y1="65.04" x2="502.19" y2="152.36" gradientUnits="userSpaceOnUse">
      <stop offset=".21" stop-color="#fff"/>
      <stop offset=".33" stop-color="#fbfcfe"/>
      <stop offset=".42" stop-color="#f1f6fa"/>
      <stop offset=".51" stop-color="#dfecf5"/>
      <stop offset=".6" stop-color="#c7ddee"/>
      <stop offset=".68" stop-color="#a7c9e5"/>
      <stop offset=".76" stop-color="#80b2d9"/>
      <stop offset=".84" stop-color="#5296cc"/>
      <stop offset=".91" stop-color="#1e76bc"/>
      <stop offset=".91" stop-color="#1c75bc"/>
    </linearGradient>
  </defs>
  <polygon class="cls-3" points="0 40.44 0 58.5 28.18 58.5 28.18 140.4 48 140.4 48 58.05 75.74 58.05 75.74 40.44 0 40.44"/>
  <path class="cls-3" d="M77.94,66.42h14.53v17.17s6.61-22.46,27.74-17.17v15.41s-18.94-3.96-23.78,12.77l-.44,45.8h-18.06v-73.98Z"/>
  <rect class="cls-3" x="134.31" y="65.62" width="18.94" height="74.79"/>
  <polygon class="cls-3" points="163.82 65.62 184.07 65.62 200.37 123.67 204 123.67 219.19 65.62 237.03 65.62 216.88 140.4 186.83 140.4 163.82 65.62"/>
  <circle class="cls-3" cx="144.61" cy="47.02" r="11.64"/>
  <path class="cls-3" d="M319.74,86.28c-3.87-9.06-12.72-21.47-32.35-22.5-25.91-1.37-36.34,9.32-41.97,22.25-1.98,4.55-2.94,9.49-2.94,14.45v5.12c0,15.03,9.05,28.73,23.06,34.19.45.18.92.35,1.39.51,3.76,1.32,7.74,1.91,11.72,1.91h7.76c7.25,0,14.42-2.03,20.39-6.15,5.02-3.46,10.11-8.85,13.38-17.21,1.63-4.16,2.39-8.61,2.39-13.08v-5.33c0-4.86-.92-9.69-2.83-14.17ZM303.41,104.35c0,2.6-.41,5.19-1.27,7.61-1.73,4.86-4.43,7.99-7.09,10.01-3.16,2.4-6.96,3.58-10.8,3.58h-4.11c-2.11,0-4.22-.34-6.21-1.11-.25-.1-.49-.2-.73-.3-7.42-3.17-12.22-11.14-12.22-19.88v-2.98c0-2.89.51-5.76,1.56-8.41,2.98-7.52,8.51-13.74,22.24-12.94,10.4.6,15.09,7.82,17.14,13.09,1.01,2.6,1.5,5.41,1.5,8.24v3.1Z"/>
  <polygon class="cls-3" points="375.58 101.27 401.01 140.4 379.71 140.4 361.54 111.01 343.54 140.4 324.22 140.4 347.01 102.69 325.87 65.62 346.68 65.62 361.87 92.68 376.73 65.62 396.71 65.62 375.58 101.27"/>
  <path class="cls-3" d="M327.91.56c-.8.02-1.57.23-2.26.64-.96.56-2.18,1.56-2.91,3.24-.91,2.08-.52,3.99-.28,4.83.06.21.14.41.23.61,5.8,12.45,11.59,24.9,17.39,37.35.29.63.71,1.18,1.24,1.62.86.71,2.31,1.59,4.37,1.72,3.52.22,65.61,0,65.61,0l-19.49-42.48c-.06-.14-.12-.27-.16-.41-.35-1-2.29-5.9-7.43-7.09-5.27-1.22-49.32-.19-56.31-.02Z"/>
  <path class="cls-3" d="M534.26,0h-81.09c-2.65,0-5.22,1.1-6.88,3.17-1.21,1.51-2.03,3.58-1.3,6.23,1.76,6.38,19.13,41.23,19.16,41.27,0,0,0,0,0,0h54.38c.19,0,.37,0,.55-.02,2.13-.19,3.96-1.61,4.89-3.53,2.69-5.57,12.7-26.33,17.05-35.63,1.26-2.68.87-5.84-.98-8.15l-.73-.91C538.08.89,536.22,0,534.26,0Z"/>
  <path class="cls-1" d="M411.3,50.57l52.84.1,43.38,91.55h-44.92s-6.11,1.49-9.91-4.13c-3.8-5.61-41.39-87.52-41.39-87.52Z"/>
  <path class="cls-2" d="M461.94,142.23s4.46-4.6,5.45-6.44,30.39-65.39,30.39-65.39c0,0,1.32-3.92,5.45-4.77,3.47-.71,31.38-.23,40.15-.05,3.14.06,5.78,2.42,6.11,5.54,0,.05.01.1.02.16.15,1.66-.23,3.32-.95,4.82l-28.57,59.8c-.9,1.88-2.1,3.6-3.55,5.1l-.06.06c-.84.87-2,1.36-3.21,1.35l-51.22-.17Z"/>
</svg>